# xmcd
#
# Track frame offsets:
#	150
#	20532
#	43651
#	67684
#	89974
#	105608
#	122283
#	138522
#	157189
#	185452
#	208103
#
# Disc length: 3114 seconds
#
# Revision: 0
# Processed by: cddbd v1.5.2PL0 Copyright (c) Steve Scherf et al.
# Submitted via: EZCDAudioConverter 4.0.1.1
#
DISCID=990c280b
DTITLE=Jane Lee Hooker - No B!
DYEAR=2016
DGENRE=Blues Rock
TTITLE0=Wade In The Water
TTITLE1=Mean Town Blues
TTITLE2=I Believe To My Soul
TTITLE3=Bumble Bee
TTITLE4=In The Valley
TTITLE5=Free Me
TTITLE6=The Hunter
TTITLE7=Champagne And Reefer
TTITLE8=Didn't It Rain
TTITLE9=Mannish Boy
TTITLE10=Shake For Me
EXTD=
EXTT0=
EXTT1=
EXTT2=
EXTT3=
EXTT4=
EXTT5=
EXTT6=
EXTT7=
EXTT8=
EXTT9=
EXTT10=
PLAYORDER=
